{"accessors":[{"bufferView":0,"componentType":5126,"count":26598,"min":[-1.7159656286239625,0.526448667049408,19.01419448852539],"max":[1.7161742448806763,2.7335989475250246,21.6883544921875],"type":"VEC3","name":"node12.001_vertices#0_POSITION"},{"bufferView":0,"byteOffset":12,"componentType":5120,"count":26598,"type":"VEC4","name":"node12.001_vertices#0_TANGENT"},{"bufferView":0,"byteOffset":16,"componentType":5120,"count":26598,"type":"VEC4","name":"node12.001_vertices#0_NORMAL"},{"bufferView":0,"byteOffset":20,"componentType":5122,"count":26598,"type":"VEC2","name":"node12.001_vertices#0_TEXCOORD_0"},{"bufferView":0,"byteOffset":24,"componentType":5122,"count":26598,"type":"VEC2","name":"node12.001_vertices#0_TEXCOORD_1"},{"bufferView":0,"byteOffset":28,"componentType":5123,"count":26598,"type":"VEC4","name":"node12.001_vertices#0_COLOR_0"},{"bufferView":1,"componentType":5123,"count":47472,"type":"SCALAR","name":"node12.001_indices#1"},{"bufferView":0,"byteOffset":957528,"componentType":5126,"count":8851,"min":[-1.7540656328201295,0.5188787579536438,19.00576400756836],"max":[1.775334358215332,2.7335989475250246,21.69050407409668],"type":"VEC3","name":"node22.001_vertices#0_POSITION"},{"bufferView":0,"byteOffset":957540,"componentType":5120,"count":8851,"type":"VEC4","name":"node22.001_vertices#0_TANGENT"},{"bufferView":0,"byteOffset":957544,"componentType":5120,"count":8851,"type":"VEC4","name":"node22.001_vertices#0_NORMAL"},{"bufferView":0,"byteOffset":957548,"componentType":5122,"count":8851,"type":"VEC2","name":"node22.001_vertices#0_TEXCOORD_0"},{"bufferView":0,"byteOffset":957552,"componentType":5122,"count":8851,"type":"VEC2","name":"node22.001_vertices#0_TEXCOORD_1"},{"bufferView":0,"byteOffset":957556,"componentType":5123,"count":8851,"type":"VEC4","name":"node22.001_vertices#0_COLOR_0"},{"bufferView":1,"byteOffset":94944,"componentType":5123,"count":16818,"type":"SCALAR","name":"node22.001_indices#1"},{"bufferView":0,"byteOffset":1276164,"componentType":5126,"count":270,"min":[-1.3772437572479249,0.5754275321960449,19.052001953125],"max":[1.3578910827636719,2.714216709136963,21.25804901123047],"type":"VEC3","name":"DRONE_COLLISION_IN.001_vertices#0_POSITION"},{"bufferView":0,"byteOffset":1276176,"componentType":5120,"count":270,"type":"VEC4","name":"DRONE_COLLISION_IN.001_vertices#0_TANGENT"},{"bufferView":0,"byteOffset":1276180,"componentType":5120,"count":270,"type":"VEC4","name":"DRONE_COLLISION_IN.001_vertices#0_NORMAL"},{"bufferView":0,"byteOffset":1276184,"componentType":5122,"count":270,"type":"VEC2","name":"DRONE_COLLISION_IN.001_vertices#0_TEXCOORD_0"},{"bufferView":0,"byteOffset":1276188,"componentType":5122,"count":270,"type":"VEC2","name":"DRONE_COLLISION_IN.001_vertices#0_TEXCOORD_1"},{"bufferView":0,"byteOffset":1276192,"componentType":5123,"count":270,"type":"VEC4","name":"DRONE_COLLISION_IN.001_vertices#0_COLOR_0"},{"bufferView":1,"byteOffset":128580,"componentType":5123,"count":324,"type":"SCALAR","name":"DRONE_COLLISION_IN.001_indices#0"}],"asset":{"generator":"Extended Khronos glTF Blender I/O v1.0.0","version":"2.0","extensions":{"ASOBO_asset_optimized":{"BoundingBoxMax":[1.775334358215332,2.7335989475250246,21.69050407409668],"BoundingBoxMin":[-1.7540656328201295,0.5188787579536438,19.00576400756836],"MajorVersion":4,"MinorVersion":4,"UseCheckerboardMaterialForMissingTextures":true,"UseOnlyFilenameForImageURI":true},"ASOBO_normal_map_convention":{"tangent_space_convention":"DirectX"}}},"bufferViews":[{"buffer":0,"byteLength":1285884,"byteStride":36,"target":34962,"name":"BufferViewVertexND"},{"buffer":0,"byteLength":129228,"byteOffset":1285884,"target":34963,"name":"BufferViewIndex"}],"extensionsRequired":["MSFT_texture_dds"],"materials":[{"name":"A339_INSIDE","normalTexture":{"index":0},"occlusionTexture":{"index":1},"pbrMetallicRoughness":{"baseColorTexture":{"index":2},"metallicRoughnessTexture":{"index":1}}},{"name":"A339_AIRFRAME_BLACK","doubleSided":true,"pbrMetallicRoughness":{"baseColorFactor":[0.0042355675250291828,0.0042355675250291828,0.0042355675250291828,1.0],"metallicFactor":0.0,"roughnessFactor":0.5}},{"name":"Collision.001","pbrMetallicRoughness":{"baseColorFactor":[0.800000011920929,0.0,0.0,1.0]},"extensions":{"ASOBO_material_invisible":{},"ASOBO_tags":{"tags":["Collision"]}}}],"meshes":[{"primitives":[{"attributes":{"COLOR_0":5,"NORMAL":2,"POSITION":0,"TANGENT":1,"TEXCOORD_0":3,"TEXCOORD_1":4},"indices":6,"material":0,"mode":4,"extras":{"ASOBO_primitive":{"PrimitiveCount":15808,"VertexType":"VTX","VertexVersion":2}}},{"attributes":{"COLOR_0":5,"NORMAL":2,"POSITION":0,"TANGENT":1,"TEXCOORD_0":3,"TEXCOORD_1":4},"indices":6,"material":1,"mode":4,"extras":{"ASOBO_primitive":{"PrimitiveCount":16,"StartIndex":47424,"VertexType":"VTX","VertexVersion":2}}}],"name":"node12.001"},{"primitives":[{"attributes":{"COLOR_0":12,"NORMAL":9,"POSITION":7,"TANGENT":8,"TEXCOORD_0":10,"TEXCOORD_1":11},"indices":13,"material":0,"mode":4,"extras":{"ASOBO_primitive":{"PrimitiveCount":4583,"VertexType":"VTX","VertexVersion":2}}},{"attributes":{"COLOR_0":12,"NORMAL":9,"POSITION":7,"TANGENT":8,"TEXCOORD_0":10,"TEXCOORD_1":11},"indices":13,"material":1,"mode":4,"extras":{"ASOBO_primitive":{"PrimitiveCount":1023,"StartIndex":13749,"VertexType":"VTX","VertexVersion":2}}}],"name":"node22.001"},{"primitives":[{"attributes":{"COLOR_0":19,"NORMAL":16,"POSITION":14,"TANGENT":15,"TEXCOORD_0":17,"TEXCOORD_1":18},"indices":20,"material":2,"mode":4,"extras":{"ASOBO_primitive":{"PrimitiveCount":108,"VertexType":"VTX","VertexVersion":2}}}],"name":"DRONE_COLLISION_IN.001"}],"nodes":[{"mesh":0,"name":"node12"},{"mesh":1,"name":"node22"},{"mesh":2,"name":"DRONE_COLLISION_IN.001"},{"translation":[0.5043748021125794,0.9002199172973633,20.2373104095459],"name":"PILOT_0"},{"translation":[-0.49181705713272097,0.9002199172973633,20.2373104095459],"name":"PILOT_1"}],"scene":0,"scenes":[{"nodes":[0,1,2,3,4],"name":"Scene","extras":{"glTF2ExportSettings":{"export_apply":0,"export_copyright":"","export_extras":1,"export_lods":1,"export_texture_dir":"../texture","use_visible":0},"glTF2MSFSExportSettings":{"export_apply":1,"export_texture_dir":"../texture"},"muv_align_uv_enabled":1,"muv_align_uv_transmission":0,"muv_align_uv_vertical":0,"muv_pack_uv_enabled":0,"muv_select_uv_enabled":0,"muv_smooth_uv_enabled":0}}],"textures":[{"extensions":{"MSFT_texture_dds":{"source":0}}},{"extensions":{"MSFT_texture_dds":{"source":1}}},{"extensions":{"MSFT_texture_dds":{"source":2}}}],"extensionsUsed":["ASOBO_normal_map_convention","ASOBO_tags","ASOBO_material_invisible","MSFT_texture_dds","ASOBO_asset_optimized"],"buffers":[{"byteLength":1415112,"uri":"A330_NEO_INTERIOR_LOD01.bin"}],"images":[{"uri":"A339_INSIDE_NORM.PNG.DDS","name":"A339_INSIDE_NORM","extras":"ASOBO_image_converted_meta"},{"uri":"A339_INSIDE_COMP.PNG.DDS","name":"A339_INSIDE_COMP","extras":"ASOBO_image_converted_meta"},{"uri":"A339_INSIDE_ALBD.PNG.DDS","name":"A339_INSIDE_ALBD","extras":"ASOBO_image_converted_meta"}]}
