<?xml version="1.0" encoding="UTF-8" standalone="no"?><!DOCTYPE svg PUBLIC "-//W3C//DTD SVG 1.1//EN" "http://www.w3.org/Graphics/SVG/1.1/DTD/svg11.dtd">
<svg width="100%" height="100%" viewBox="0 0 675 297" version="1.1" xmlns="http://www.w3.org/2000/svg" xmlns:xlink="http://www.w3.org/1999/xlink" xml:space="preserve" xmlns:serif="http://www.serif.com/" style="fill-rule:evenodd;clip-rule:evenodd;stroke-miterlimit:10;">
<style type="text/css"> .st0{fill:none;stroke:white;stroke-miterlimit:10;} .st1{fill:white;}</style>
<path d="M281.239,130.071l-2.072,-0l-0.936,-1.872l-0,-2.072l1.805,-1.604l-0,-5.482l-1.003,-1.136l-0,-2.674l4.412,-0l-0,2.674l-1.003,1.136l0,5.482l1.805,1.604l-0,2.072l-0.936,1.872l-2.072,-0" class="st0"/><path d="M318.416,69.485c-0,-4.367 -3.546,-7.913 -7.914,-7.913l-46.711,0c-4.368,0 -7.913,3.546 -7.913,7.913l-0,93.74c-0,4.367 3.545,7.913 7.913,7.913l46.711,-0c4.368,-0 7.914,-3.546 7.914,-7.913l-0,-93.74Zm-1,0l-0,93.74c-0,3.815 -3.098,6.913 -6.914,6.913l-46.711,-0c-3.816,-0 -6.913,-3.098 -6.913,-6.913c-0,-0 -0,-93.74 -0,-93.74c-0,-3.815 3.097,-6.913 6.913,-6.913c-0,0 46.711,0 46.711,0c3.816,0 6.913,3.098 6.914,6.913Z" class="st1"/><path d="M303.067,114.231c1.582,-0 2.866,1.284 2.866,2.866c-0,1.581 -1.284,2.866 -2.866,2.866c-1.582,-0 -2.866,-1.285 -2.866,-2.866c0,-1.582 1.284,-2.866 2.866,-2.866Zm0,1c1.03,-0 1.866,0.836 1.866,1.866c-0,1.03 -0.836,1.866 -1.866,1.866c-1.03,-0 -1.866,-0.836 -1.866,-1.866c0,-1.03 0.836,-1.866 1.866,-1.866Z" class="st1"/><path d="M255.878,165.972l-4.726,0l-0,8.154c-0,0.679 0.27,1.331 0.75,1.811c0.48,0.48 1.131,0.75 1.811,0.75c11.187,-0 55.727,-0 67.396,-0c0.745,-0 1.46,-0.296 1.987,-0.823c0.527,-0.527 0.824,-1.242 0.824,-1.988c-0,-3.251 -0,-8.162 -0,-8.162l-5.504,-0" class="st0"/><path d="M369.492,111.777c-0,-3.526 -2.863,-6.388 -6.388,-6.388c-3.526,-0 -6.388,2.862 -6.388,6.388l-0,5.926c-0,3.525 2.862,6.388 6.388,6.388c3.525,-0 6.388,-2.863 6.388,-6.388l-0,-5.926Zm-1,-0l-0,5.926c-0,2.974 -2.415,5.388 -5.388,5.388c-2.974,-0 -5.388,-2.414 -5.388,-5.388c-0,-0 -0,-5.926 -0,-5.926c-0,-2.974 2.414,-5.388 5.388,-5.388c2.973,-0 5.388,2.414 5.388,5.388Z" class="st1"/><path d="M393.615,111.777c0,-3.526 -2.862,-6.388 -6.388,-6.388c-3.525,-0 -6.388,2.862 -6.388,6.388l0,5.926c0,3.525 2.863,6.388 6.388,6.388c3.526,-0 6.388,-2.863 6.388,-6.388l0,-5.926Zm-1,-0l0,5.926c0,2.974 -2.414,5.388 -5.388,5.388c-2.973,-0 -5.388,-2.414 -5.388,-5.388l0,-5.926c0,-2.974 2.415,-5.388 5.388,-5.388c2.974,-0 5.388,2.414 5.388,5.388Z" class="st1"/><path d="M418.555,111.777c0,-3.526 -2.862,-6.388 -6.388,-6.388c-3.526,-0 -6.388,2.862 -6.388,6.388l0,5.926c0,3.525 2.862,6.388 6.388,6.388c3.526,-0 6.388,-2.863 6.388,-6.388l0,-5.926Zm-1,-0l0,5.926c0,2.974 -2.414,5.388 -5.388,5.388c-2.974,-0 -5.388,-2.414 -5.388,-5.388l0,-5.926c0,-2.974 2.414,-5.388 5.388,-5.388c2.974,-0 5.388,2.414 5.388,5.388Z" class="st1"/><path d="M443.908,111.777c0,-3.526 -2.862,-6.388 -6.388,-6.388c-3.526,-0 -6.388,2.862 -6.388,6.388l0,5.926c0,3.525 2.862,6.388 6.388,6.388c3.526,-0 6.388,-2.863 6.388,-6.388l0,-5.926Zm-1,-0l0,5.926c0,2.974 -2.414,5.388 -5.388,5.388c-2.974,-0 -5.388,-2.414 -5.388,-5.388c0,-0 0,-5.926 0,-5.926c0,-2.974 2.414,-5.388 5.388,-5.388c2.974,-0 5.388,2.414 5.388,5.388Z" class="st1"/><path d="M469.786,111.777c-0,-3.526 -2.863,-6.388 -6.388,-6.388c-3.526,-0 -6.388,2.862 -6.388,6.388l-0,5.926c-0,3.525 2.862,6.388 6.388,6.388c3.525,-0 6.388,-2.863 6.388,-6.388l-0,-5.926Zm-1,-0l-0,5.926c-0,2.974 -2.415,5.388 -5.388,5.388c-2.974,-0 -5.388,-2.414 -5.388,-5.388l-0,-5.926c-0,-2.974 2.414,-5.388 5.388,-5.388c2.973,-0 5.388,2.414 5.388,5.388Z" class="st1"/><path d="M493.909,111.777c0,-3.526 -2.862,-6.388 -6.388,-6.388c-3.525,-0 -6.388,2.862 -6.388,6.388l0,5.926c0,3.525 2.863,6.388 6.388,6.388c3.526,-0 6.388,-2.863 6.388,-6.388l0,-5.926Zm-1,-0l0,5.926c0,2.974 -2.414,5.388 -5.388,5.388c-2.973,-0 -5.388,-2.414 -5.388,-5.388l0,-5.926c0,-2.974 2.415,-5.388 5.388,-5.388c2.974,-0 5.388,2.414 5.388,5.388Z" class="st1"/><path d="M518.849,111.777c0,-3.526 -2.862,-6.388 -6.388,-6.388c-3.525,-0 -6.388,2.862 -6.388,6.388l0,5.926c0,3.525 2.863,6.388 6.388,6.388c3.526,-0 6.388,-2.863 6.388,-6.388l0,-5.926Zm-1,-0l0,5.926c0,2.974 -2.414,5.388 -5.388,5.388c-2.974,-0 -5.388,-2.414 -5.388,-5.388l0,-5.926c0,-2.974 2.414,-5.388 5.388,-5.388c2.974,-0 5.388,2.414 5.388,5.388Z" class="st1"/><path d="M544.202,111.777c0,-3.526 -2.862,-6.388 -6.388,-6.388c-3.525,-0 -6.388,2.862 -6.388,6.388l0,5.926c0,3.525 2.863,6.388 6.388,6.388c3.526,-0 6.388,-2.863 6.388,-6.388l0,-5.926Zm-1,-0l0,5.926c0,2.974 -2.414,5.388 -5.388,5.388c-2.974,-0 -5.388,-2.414 -5.388,-5.388c0,-0 0,-5.926 0,-5.926c0,-2.974 2.414,-5.388 5.388,-5.388c2.974,-0 5.388,2.414 5.388,5.388Z" class="st1"/><path d="M571.461,111.777c-0,-3.526 -2.863,-6.388 -6.388,-6.388c-3.526,-0 -6.388,2.862 -6.388,6.388l-0,5.926c-0,3.525 2.862,6.388 6.388,6.388c3.525,-0 6.388,-2.863 6.388,-6.388l-0,-5.926Zm-1,-0l-0,5.926c-0,2.974 -2.415,5.388 -5.388,5.388c-2.974,-0 -5.388,-2.414 -5.388,-5.388l-0,-5.926c-0,-2.974 2.414,-5.388 5.388,-5.388c2.973,-0 5.388,2.414 5.388,5.388Z" class="st1"/><path d="M595.584,111.777c0,-3.526 -2.862,-6.388 -6.388,-6.388c-3.525,-0 -6.388,2.862 -6.388,6.388l0,5.926c0,3.525 2.863,6.388 6.388,6.388c3.526,-0 6.388,-2.863 6.388,-6.388l0,-5.926Zm-1,-0l0,5.926c0,2.974 -2.414,5.388 -5.388,5.388c-2.973,-0 -5.388,-2.414 -5.388,-5.388c0,-0 0,-5.926 0,-5.926c0,-2.974 2.415,-5.388 5.388,-5.388c2.974,-0 5.388,2.414 5.388,5.388Z" class="st1"/><path d="M620.524,111.777c0,-3.526 -2.862,-6.388 -6.388,-6.388c-3.526,-0 -6.388,2.862 -6.388,6.388l0,5.926c0,3.525 2.862,6.388 6.388,6.388c3.526,-0 6.388,-2.863 6.388,-6.388l0,-5.926Zm-1,-0l0,5.926c0,2.974 -2.414,5.388 -5.388,5.388c-2.974,-0 -5.388,-2.414 -5.388,-5.388c0,-0 0,-5.926 0,-5.926c0,-2.974 2.414,-5.388 5.388,-5.388c2.974,-0 5.388,2.414 5.388,5.388Z" class="st1"/><path d="M645.877,111.777c0,-3.526 -2.862,-6.388 -6.388,-6.388c-3.525,-0 -6.388,2.862 -6.388,6.388l0,5.926c0,3.525 2.863,6.388 6.388,6.388c3.526,-0 6.388,-2.863 6.388,-6.388l0,-5.926Zm-1,-0l0,5.926c0,2.974 -2.414,5.388 -5.388,5.388c-2.974,-0 -5.388,-2.414 -5.388,-5.388c0,-0 0,-5.926 0,-5.926c0,-2.974 2.414,-5.388 5.388,-5.388c2.974,-0 5.388,2.414 5.388,5.388Z" class="st1"/><path d="M45.61,174.138l-21.124,-0" class="st0"/><path d="M136.537,230.883l-4,2.7l-7.2,-0l0,1.5l14.3,-0l3.2,-2.7l-1,-1.5l-5.3,-0Z" class="st0"/><path d="M124.995,217.748l-4,2.7l-7.2,0l-0,1.5l14.3,0l3.2,-2.7l-1,-1.5l-5.3,0Z" class="st0"/><path d="M365.67,178.619c3.127,0 5.667,2.539 5.667,5.667c-0,3.128 -2.54,5.667 -5.667,5.667c-3.128,-0 -5.667,-2.539 -5.667,-5.667c-0,-3.128 2.539,-5.667 5.667,-5.667Zm-0,1c2.575,0 4.667,2.091 4.667,4.667c-0,2.576 -2.092,4.667 -4.667,4.667c-2.576,-0 -4.667,-2.091 -4.667,-4.667c-0,-2.576 2.091,-4.667 4.667,-4.667Z" class="st1"/><path d="M602.354,252.027c3.127,-0 5.667,2.539 5.667,5.667c-0,3.127 -2.54,5.667 -5.667,5.667c-3.128,-0 -5.667,-2.54 -5.667,-5.667c-0,-3.128 2.539,-5.667 5.667,-5.667Zm-0,1c2.576,-0 4.667,2.091 4.667,4.667c-0,2.575 -2.091,4.667 -4.667,4.667c-2.576,-0 -4.667,-2.092 -4.667,-4.667c-0,-2.576 2.091,-4.667 4.667,-4.667Z" class="st1"/><path d="M629.133,252.027c3.128,-0 5.667,2.539 5.667,5.667c-0,3.127 -2.539,5.667 -5.667,5.667c-3.128,-0 -5.667,-2.54 -5.667,-5.667c0,-3.128 2.539,-5.667 5.667,-5.667Zm0,1c2.576,-0 4.667,2.091 4.667,4.667c-0,2.575 -2.091,4.667 -4.667,4.667c-2.576,-0 -4.667,-2.092 -4.667,-4.667c0,-2.576 2.091,-4.667 4.667,-4.667Z" class="st1"/><path d="M657.347,252.027c3.127,-0 5.667,2.539 5.667,5.667c-0,3.127 -2.54,5.667 -5.667,5.667c-3.128,-0 -5.667,-2.54 -5.667,-5.667c-0,-3.128 2.539,-5.667 5.667,-5.667Zm-0,1c2.575,-0 4.667,2.091 4.667,4.667c-0,2.575 -2.092,4.667 -4.667,4.667c-2.576,-0 -4.667,-2.092 -4.667,-4.667c-0,-2.576 2.091,-4.667 4.667,-4.667Z" class="st1"/><path d="M670.508,252.36c-0,-2.814 -2.285,-5.099 -5.099,-5.099l-73.171,-0c-2.815,-0 -5.1,2.285 -5.1,5.099l0,10.198c0,2.814 2.285,5.099 5.1,5.099l73.171,0c2.814,0 5.099,-2.285 5.099,-5.099l-0,-10.198Zm-1,-0l-0,10.198c-0,2.262 -1.837,4.099 -4.099,4.099l-73.171,0c-2.263,0 -4.1,-1.837 -4.1,-4.099l0,-10.198c0,-2.263 1.837,-4.099 4.1,-4.099l73.171,-0c2.262,-0 4.099,1.836 4.099,4.099Z" class="st1"/><path d="M46.401,198.923c-10.757,-2.328 -19.129,-8.235 -25.788,-12.643" class="st0"/><path d="M46.401,148.4c-10.757,2.328 -19.129,8.236 -25.788,12.643" class="st0"/><path d="M549.762,25.482l0,263.65" class="st0"/><path d="M626.669,25.482l0,177.126" class="st0"/><path d="M351.266,57.355l323.334,-2.007" class="st0"/><path d="M351.266,136.905l275.403,-1.709" class="st0"/><path d="M53.892,186.704c0,0 104.586,13.111 154.148,15.904c47.667,2.687 143.226,0.855 143.226,0.855l323.334,-2.007" class="st0"/><path d="M351.21,27.029l0.056,261.195" class="st0"/><path d="M233.488,39.854l0,164.219" class="st0"/><path d="M166.331,57.378l-0,141.703" class="st0"/><path d="M53.892,128.229l0,91.052" class="st0"/><path d="M674.6,25.5l-210.888,-0.102l6.377,-18.22l-5.49,0.027l-15.762,18.295l-37.595,-0c-0,-0 -73.116,-0.825 -142.151,8.596c-47.826,6.526 -101.385,21.97 -124.167,30.808c-42.228,16.381 -77.935,56.853 -77.935,56.853c-120.234,53.174 -59.299,106.629 194.382,156.978c26.608,5.281 67.07,9.141 104.48,10.397l308.749,-0.639" class="st0"/><path d="M162.753,122.615l-28.805,-0l-0,-26.073l19.195,0l9.592,10.707l0.018,15.366Zm-1.001,-1l-26.804,-0c-0,-0 -0,-24.073 -0,-24.073c-0,0 17.748,0 17.748,0c0,0 9.04,10.09 9.04,10.09l0.016,13.983Z" class="st1"/><path d="M67.284,121.331l27.411,0.041l16.666,-22.715l-20.434,0.148" class="st0"/><path d="M128.566,122.615l-24.647,-0l-1.826,-5.929l14.072,-20.144l12.356,0l0.045,26.073Zm-1.001,-1l-22.908,-0c0,-0 -1.464,-4.757 -1.464,-4.757c-0,0 13.493,-19.316 13.493,-19.316c0,0 10.837,0 10.837,0l0.042,24.073Z" class="st1"/></svg>