{
    "asset" : {
        "extensions" : {
            "ASOBO_normal_map_convention" : {
                "tangent_space_convention" : "DirectX"
            }
        },
        "generator" : "Extended Khronos glTF Blender I/O v1.0.0",
        "version" : "2.0"
    },
    "extensionsUsed" : [
        "ASOBO_normal_map_convention",
        "ASOBO_tags",
        "ASOBO_material_invisible"
    ],
    "scene" : 0,
    "scenes" : [
        {
            "extras" : {
                "glTF2ExportSettings" : {
                    "export_apply" : 0,
                    "export_copyright" : "",
                    "export_extras" : 1,
                    "export_lods" : 1,
                    "export_texture_dir" : "../texture",
                    "use_visible" : 0
                },
                "muv_align_uv_enabled" : 1,
                "muv_align_uv_transmission" : 0,
                "muv_align_uv_vertical" : 0,
                "muv_pack_uv_enabled" : 0,
                "muv_select_uv_enabled" : 0,
                "muv_smooth_uv_enabled" : 0,
                "glTF2MSFSExportSettings" : {
                    "export_apply" : 1,
                    "export_texture_dir" : "../texture"
                }
            },
            "name" : "Scene",
            "nodes" : [
                0,
                1,
                2,
                3,
                4
            ]
        }
    ],
    "nodes" : [
        {
            "extras" : {},
            "mesh" : 0,
            "name" : "node12",
            "translation" : [
                0,
                0,
                -8.997215270996094
            ]
        },
        {
            "extras" : {},
            "mesh" : 1,
            "name" : "node22",
            "translation" : [
                0,
                0,
                -8.997215270996094
            ]
        },
        {
            "extras" : {},
            "mesh" : 2,
            "name" : "DRONE_COLLISION_IN.001",
            "translation" : [
                0.07230716943740845,
                1.7758300304412842,
                20.349124908447266
            ]
        },
        {
            "name" : "PILOT_0",
            "translation" : [
                0.5043748021125793,
                0.9002199172973633,
                20.2373104095459
            ]
        },
        {
            "name" : "PILOT_1",
            "translation" : [
                -0.49181705713272095,
                0.9002199172973633,
                20.2373104095459
            ]
        }
    ],
    "materials" : [
        {
            "emissiveFactor" : [
                0,
                0,
                0
            ],
            "extras" : {
                "msfs_material_type" : 1,
                "msfs_base_color_factor" : [
                    1,
                    1,
                    1,
                    1
                ],
                "msfs_emissive_factor" : [
                    0,
                    0,
                    0
                ],
                "msfs_alpha_mode" : 0,
                "msfs_draw_order" : 0,
                "msfs_double_sided" : 0,
                "msfs_dont_cast_shadows" : 0,
                "msfs_day_night_cycle" : 0,
                "msfs_use_pearl_effect" : 0,
                "msfs_pearl_shift" : 0,
                "msfs_pearl_range" : 0,
                "msfs_pearl_brightness" : 0,
                "msfs_collision_material" : 0,
                "msfs_road_material" : 0,
                "msfs_uv_offset_u" : 0,
                "msfs_uv_offset_v" : 0,
                "msfs_uv_tiling_u" : 1,
                "msfs_uv_tiling_v" : 1,
                "msfs_uv_rotation" : 0,
                "msfs_uv_clamp_u" : 0,
                "msfs_uv_clamp_v" : 0,
                "msfs_roughness_factor" : 1,
                "msfs_metallic_factor" : 1,
                "msfs_normal_scale" : 1,
                "msfs_alpha_cutoff" : 0.5,
                "msfs_detail_uv_scale" : 1,
                "msfs_detail_uv_offset_u" : 0,
                "msfs_detail_uv_offset_v" : 0,
                "msfs_detail_normal_scale" : 1,
                "msfs_blend_threshold" : 0.10000000149011612,
                "msfs_decal_color_blend_factor" : 1,
                "msfs_decal_metal_blend_factor" : 1,
                "msfs_decal_normal_blend_factor" : 1,
                "msfs_decal_roughness_blend_factor" : 1,
                "msfs_decal_occlusion_blend_factor" : 1,
                "msfs_decal_emissive_blend_factor" : 1,
                "msfs_rain_drop_scale" : 1,
                "msfs_wiper_1_state" : 0,
                "msfs_wiper_2_state" : 0,
                "msfs_glass_reflection_factor" : 1,
                "msfs_glass_deformation_factor" : 0,
                "msfs_parallax_scale" : 0,
                "msfs_parallax_room_size_x" : 0.5,
                "msfs_parallax_room_size_y" : 0.5,
                "msfs_parallax_room_number" : 1,
                "msfs_parallax_corridor" : 0,
                "msfs_sss_color" : [
                    1,
                    1,
                    1,
                    1
                ],
                "msfs_fresnel_factor" : 1,
                "msfs_fresnel_opacity_bias" : 0,
                "msfs_base_color_texture" : {
                    "name" : "Inside_T.dds",
                    "type" : "Image"
                },
                "msfs_normal_texture" : {
                    "name" : "A339_INSIDE_NORM.png",
                    "type" : "Image"
                },
                "msfs_show_colors" : 1,
                "msfs_show_emissive_color" : 1,
                "msfs_show_alpha_mode" : 1,
                "msfs_show_render_options" : 1,
                "msfs_show_day_night_cycle" : 1,
                "msfs_show_pearl" : 1,
                "msfs_show_gameplay_options" : 1,
                "msfs_show_uv_options" : 1,
                "msfs_show_material_options" : 1,
                "msfs_show_material_detail_options" : 1,
                "msfs_show_blend_threshold" : 1,
                "msfs_show_decal_blend_factors" : 0,
                "msfs_show_windshield_options" : 0,
                "msfs_show_glass_options" : 0,
                "msfs_show_parallax_options" : 0,
                "msfs_show_sss_color" : 0,
                "msfs_show_fresnel_options" : 0,
                "msfs_show_base_color_texture" : 1,
                "msfs_show_comp_texture" : 1,
                "msfs_show_normal_texture" : 1,
                "msfs_show_emissive_texture" : 1,
                "msfs_show_detail_color_texture" : 1,
                "msfs_show_detail_comp_texture" : 1,
                "msfs_show_detail_normal_texture" : 1,
                "msfs_show_blend_mask_texture" : 1,
                "msfs_show_wetness_ao_texture" : 0,
                "msfs_show_dirt_texture" : 0,
                "msfs_show_height_map_texture" : 0,
                "msfs_material_mode" : 1,
                "msfs_albedo_texture" : {
                    "name" : "A339_INSIDE_ALBD.png",
                    "type" : "Image"
                },
                "msfs_metallic_texture" : {
                    "name" : "A339_INSIDE_COMP.png",
                    "type" : "Image"
                },
                "msfs_show_tint" : 1,
                "msfs_show_glass_parameters" : 0,
                "msfs_show_decal_parameters" : 0,
                "msfs_show_fresnel_parameters" : 0,
                "msfs_show_parallax_parameters" : 0,
                "msfs_show_geo_decal_parameters" : 0,
                "msfs_show_albedo" : 1,
                "msfs_show_metallic" : 1,
                "msfs_show_normal" : 1,
                "msfs_show_emissive" : 1,
                "msfs_show_detail_albedo" : 1,
                "msfs_show_detail_metallic" : 1,
                "msfs_show_detail_normal" : 1,
                "msfs_show_blend_mask" : 1,
                "msfs_show_anisotropic_direction" : 0,
                "msfs_show_clearcoat" : 0,
                "msfs_show_behind_glass" : 0,
                "msfs_show_blend_mode" : 1,
                "msfs_show_draworder" : 1,
                "msfs_show_no_cast_shadow" : 1,
                "msfs_show_double_sided" : 1,
                "msfs_show_responsive_aa" : 0,
                "msfs_show_collision_material" : 1,
                "msfs_show_road_material" : 1,
                "msfs_show_ao_use_uv2" : 1,
                "msfs_show_uv_clamp" : 1,
                "msfs_show_alpha_cutoff" : 1
            },
            "name" : "A339_INSIDE",
            "normalTexture" : {
                "index" : 0,
                "texCoord" : 0
            },
            "occlusionTexture" : {
                "index" : 1,
                "texCoord" : 0
            },
            "pbrMetallicRoughness" : {
                "baseColorTexture" : {
                    "index" : 2,
                    "texCoord" : 0
                },
                "metallicRoughnessTexture" : {
                    "index" : 1,
                    "texCoord" : 0
                }
            }
        },
        {
            "doubleSided" : true,
            "emissiveFactor" : [
                0,
                0,
                0
            ],
            "name" : "A339_AIRFRAME_BLACK",
            "pbrMetallicRoughness" : {
                "baseColorFactor" : [
                    0.0042355675250291824,
                    0.0042355675250291824,
                    0.0042355675250291824,
                    1
                ],
                "metallicFactor" : 0,
                "roughnessFactor" : 0.5
            }
        },
        {
            "alphaMode" : "BLEND",
            "emissiveFactor" : [
                0.800000011920929,
                0,
                0
            ],
            "extensions" : {
                "ASOBO_tags" : {
                    "tags" : [
                        "Collision"
                    ]
                },
                "ASOBO_material_invisible" : {
                    "enabled" : true
                }
            },
            "extras" : {
                "msfs_material_mode" : 15,
                "msfs_show_tint" : 0,
                "msfs_show_sss_color" : 0,
                "msfs_show_glass_parameters" : 0,
                "msfs_show_decal_parameters" : 0,
                "msfs_show_fresnel_parameters" : 0,
                "msfs_show_parallax_parameters" : 0,
                "msfs_show_geo_decal_parameters" : 0,
                "msfs_show_albedo" : 0,
                "msfs_show_metallic" : 0,
                "msfs_show_normal" : 0,
                "msfs_show_emissive" : 0,
                "msfs_show_detail_albedo" : 0,
                "msfs_show_detail_metallic" : 0,
                "msfs_show_detail_normal" : 0,
                "msfs_show_blend_mask" : 0,
                "msfs_show_anisotropic_direction" : 0,
                "msfs_show_clearcoat" : 0,
                "msfs_show_behind_glass" : 0,
                "msfs_show_blend_mode" : 0,
                "msfs_show_draworder" : 0,
                "msfs_show_no_cast_shadow" : 0,
                "msfs_show_double_sided" : 0,
                "msfs_show_responsive_aa" : 0,
                "msfs_show_day_night_cycle" : 0,
                "msfs_show_collision_material" : 1,
                "msfs_show_road_material" : 1,
                "msfs_show_ao_use_uv2" : 0,
                "msfs_show_uv_clamp" : 1,
                "msfs_show_alpha_cutoff" : 0,
                "msfs_show_blend_threshold" : 0,
                "msfs_collision_material" : 1
            },
            "name" : "Collision.001",
            "pbrMetallicRoughness" : {
                "baseColorFactor" : [
                    0.800000011920929,
                    0,
                    0,
                    1
                ],
                "metallicFactor" : 0,
                "roughnessFactor" : 0.5
            }
        }
    ],
    "meshes" : [
        {
            "name" : "node12.001",
            "primitives" : [
                {
                    "attributes" : {
                        "POSITION" : 0,
                        "NORMAL" : 1,
                        "TEXCOORD_0" : 2
                    },
                    "indices" : 3,
                    "material" : 0
                }
            ]
        },
        {
            "name" : "node22.001",
            "primitives" : [
                {
                    "attributes" : {
                        "POSITION" : 4,
                        "NORMAL" : 5,
                        "TEXCOORD_0" : 6
                    },
                    "indices" : 7,
                    "material" : 0
                },
                {
                    "attributes" : {
                        "POSITION" : 8,
                        "NORMAL" : 9,
                        "TEXCOORD_0" : 10
                    },
                    "indices" : 11,
                    "material" : 1
                }
            ]
        },
        {
            "name" : "DRONE_COLLISION_IN.001",
            "primitives" : [
                {
                    "attributes" : {
                        "POSITION" : 12,
                        "NORMAL" : 13,
                        "TEXCOORD_0" : 14,
                        "TEXCOORD_1" : 15,
                        "COLOR_0" : 16
                    },
                    "indices" : 17,
                    "material" : 2
                }
            ]
        }
    ],
    "textures" : [
        {
            "source" : 0
        },
        {
            "source" : 1
        },
        {
            "source" : 2
        }
    ],
    "images" : [
        {
            "mimeType" : "image/png",
            "name" : "A339_INSIDE_NORM",
            "uri" : "A339_INSIDE_NORM.png"
        },
        {
            "mimeType" : "image/png",
            "name" : "A339_INSIDE_COMP",
            "uri" : "A339_INSIDE_COMP.png"
        },
        {
            "mimeType" : "image/png",
            "name" : "A339_INSIDE_ALBD",
            "uri" : "A339_INSIDE_ALBD.png"
        }
    ],
    "accessors" : [
        {
            "bufferView" : 0,
            "componentType" : 5126,
            "count" : 37914,
            "max" : [
                1.7161742448806763,
                2.7335989475250244,
                30.685569763183594
            ],
            "min" : [
                -1.7159656286239624,
                0.5206586718559265,
                28.011409759521484
            ],
            "type" : "VEC3"
        },
        {
            "bufferView" : 1,
            "componentType" : 5126,
            "count" : 37914,
            "type" : "VEC3"
        },
        {
            "bufferView" : 2,
            "componentType" : 5126,
            "count" : 37914,
            "type" : "VEC2"
        },
        {
            "bufferView" : 3,
            "componentType" : 5123,
            "count" : 67164,
            "type" : "SCALAR"
        },
        {
            "bufferView" : 4,
            "componentType" : 5126,
            "count" : 33183,
            "max" : [
                1.775334358215332,
                2.7335989475250244,
                30.687719345092773
            ],
            "min" : [
                -1.7540656328201294,
                0.5188787579536438,
                28.002979278564453
            ],
            "type" : "VEC3"
        },
        {
            "bufferView" : 5,
            "componentType" : 5126,
            "count" : 33183,
            "type" : "VEC3"
        },
        {
            "bufferView" : 6,
            "componentType" : 5126,
            "count" : 33183,
            "type" : "VEC2"
        },
        {
            "bufferView" : 7,
            "componentType" : 5123,
            "count" : 56532,
            "type" : "SCALAR"
        },
        {
            "bufferView" : 8,
            "componentType" : 5126,
            "count" : 8291,
            "max" : [
                0.738974392414093,
                1.9338188171386719,
                29.660507202148438
            ],
            "min" : [
                -1.2982456684112549,
                0.849628746509552,
                28.078012466430664
            ],
            "type" : "VEC3"
        },
        {
            "bufferView" : 9,
            "componentType" : 5126,
            "count" : 8291,
            "type" : "VEC3"
        },
        {
            "bufferView" : 10,
            "componentType" : 5126,
            "count" : 8291,
            "type" : "VEC2"
        },
        {
            "bufferView" : 11,
            "componentType" : 5123,
            "count" : 14460,
            "type" : "SCALAR"
        },
        {
            "bufferView" : 12,
            "componentType" : 5126,
            "count" : 259,
            "max" : [
                1.2855838537216187,
                0.9383866786956787,
                0.9089232683181763
            ],
            "min" : [
                -1.4495508670806885,
                -1.2004024982452393,
                -1.2971234321594238
            ],
            "type" : "VEC3"
        },
        {
            "bufferView" : 13,
            "componentType" : 5126,
            "count" : 259,
            "type" : "VEC3"
        },
        {
            "bufferView" : 14,
            "componentType" : 5126,
            "count" : 259,
            "type" : "VEC2"
        },
        {
            "bufferView" : 15,
            "componentType" : 5126,
            "count" : 259,
            "type" : "VEC2"
        },
        {
            "bufferView" : 16,
            "componentType" : 5126,
            "count" : 259,
            "type" : "VEC4"
        },
        {
            "bufferView" : 17,
            "componentType" : 5123,
            "count" : 324,
            "type" : "SCALAR"
        }
    ],
    "bufferViews" : [
        {
            "buffer" : 0,
            "byteLength" : 454968,
            "byteOffset" : 0
        },
        {
            "buffer" : 0,
            "byteLength" : 454968,
            "byteOffset" : 454968
        },
        {
            "buffer" : 0,
            "byteLength" : 303312,
            "byteOffset" : 909936
        },
        {
            "buffer" : 0,
            "byteLength" : 134328,
            "byteOffset" : 1213248
        },
        {
            "buffer" : 0,
            "byteLength" : 398196,
            "byteOffset" : 1347576
        },
        {
            "buffer" : 0,
            "byteLength" : 398196,
            "byteOffset" : 1745772
        },
        {
            "buffer" : 0,
            "byteLength" : 265464,
            "byteOffset" : 2143968
        },
        {
            "buffer" : 0,
            "byteLength" : 113064,
            "byteOffset" : 2409432
        },
        {
            "buffer" : 0,
            "byteLength" : 99492,
            "byteOffset" : 2522496
        },
        {
            "buffer" : 0,
            "byteLength" : 99492,
            "byteOffset" : 2621988
        },
        {
            "buffer" : 0,
            "byteLength" : 66328,
            "byteOffset" : 2721480
        },
        {
            "buffer" : 0,
            "byteLength" : 28920,
            "byteOffset" : 2787808
        },
        {
            "buffer" : 0,
            "byteLength" : 3108,
            "byteOffset" : 2816728
        },
        {
            "buffer" : 0,
            "byteLength" : 3108,
            "byteOffset" : 2819836
        },
        {
            "buffer" : 0,
            "byteLength" : 2072,
            "byteOffset" : 2822944
        },
        {
            "buffer" : 0,
            "byteLength" : 2072,
            "byteOffset" : 2825016
        },
        {
            "buffer" : 0,
            "byteLength" : 4144,
            "byteOffset" : 2827088
        },
        {
            "buffer" : 0,
            "byteLength" : 648,
            "byteOffset" : 2831232
        }
    ],
    "buffers" : [
        {
            "byteLength" : 2831880,
            "uri" : "A330_NEO_INTERIOR_LOD01.bin"
        }
    ]
}
